<svg xmlns="http://www.w3.org/2000/svg" fill="#fff"  viewBox="0 0 50 50" width="20px" height="20px"><path d="M 25 5 C 13.425781 5 4 14.425781 4 26 C 4 33.914063 8.394531 40.824219 14.878906 44.398438 C 15.503906 44.753906 16.273438 44.742188 16.890625 44.375 C 17.511719 44.003906 17.882813 43.328125 17.863281 42.609375 C 17.847656 41.890625 17.441406 41.234375 16.808594 40.894531 C 11.558594 38 8 32.433594 8 26 C 8 16.589844 15.589844 9 25 9 C 34.410156 9 42 16.589844 42 26 C 42 32.433594 38.441406 38 33.191406 40.894531 C 32.558594 41.234375 32.152344 41.890625 32.136719 42.609375 C 32.117188 43.328125 32.488281 44.003906 33.109375 44.375 C 33.726563 44.742188 34.496094 44.753906 35.121094 44.398438 C 41.605469 40.824219 46 33.914063 46 26 C 46 14.425781 36.574219 5 25 5 Z M 25 11 C 16.738281 11 10 17.738281 10 26 C 10 31.648438 13.140625 36.585938 17.769531 39.140625 C 18.398438 39.511719 19.179688 39.511719 19.808594 39.144531 C 20.4375 38.773438 20.8125 38.089844 20.789063 37.359375 C 20.769531 36.628906 20.351563 35.96875 19.703125 35.640625 C 16.304688 33.765625 14 30.167969 14 26 C 14 19.902344 18.902344 15 25 15 C 31.097656 15 36 19.902344 36 26 C 36 30.167969 33.695313 33.765625 30.296875 35.640625 C 29.648438 35.96875 29.230469 36.628906 29.210938 37.359375 C 29.1875 38.089844 29.5625 38.773438 30.191406 39.144531 C 30.820313 39.511719 31.601563 39.511719 32.230469 39.140625 C 36.859375 36.585938 40 31.648438 40 26 C 40 17.738281 33.261719 11 25 11 Z M 25 17 C 20.054688 17 16 21.054688 16 26 C 16 29.382813 17.882813 32.351563 20.660156 33.886719 C 21.289063 34.238281 22.058594 34.230469 22.675781 33.859375 C 23.292969 33.488281 23.664063 32.816406 23.648438 32.097656 C 23.628906 31.375 23.226563 30.722656 22.59375 30.378906 C 21.046875 29.53125 20 27.902344 20 26 C 20 23.214844 22.214844 21 25 21 C 27.785156 21 30 23.214844 30 26 C 30 27.902344 28.953125 29.53125 27.40625 30.378906 C 26.773438 30.722656 26.371094 31.375 26.351563 32.097656 C 26.335938 32.816406 26.707031 33.488281 27.324219 33.859375 C 27.941406 34.230469 28.710938 34.238281 29.339844 33.886719 C 32.117188 32.351563 34 29.382813 34 26 C 34 21.054688 29.945313 17 25 17 Z M 25 23 C 23.34375 23 22 24.34375 22 26 C 22 27.65625 23.34375 29 25 29 C 26.65625 29 28 27.65625 28 26 C 28 24.34375 26.65625 23 25 23 Z"/></svg>